<?xml version="1.0" encoding="iso-8859-1"?>
<!-- Generator: Adobe Illustrator 17.1.0, SVG Export Plug-In . SVG Version: 6.00 Build 0)  -->
<!DOCTYPE svg PUBLIC "-//W3C//DTD SVG 1.1//EN" "http://www.w3.org/Graphics/SVG/1.1/DTD/svg11.dtd">
<svg version="1.1" id="Capa_1" xmlns="http://www.w3.org/2000/svg" xmlns:xlink="http://www.w3.org/1999/xlink" x="0px" y="0px"
	 viewBox="0 0 374.985 374.985" style="enable-background:new 0 0 374.985 374.985;" xml:space="preserve">
<path style="fill:#000001;" d="M245.435,130.52c-11.585-7.572-26.943-12.411-42.943-14.045v-48.49h28.811
	c8.102,0,15.642-3.313,21.232-9.113c5.589-5.8,8.503-13.513,8.203-21.61l-0.843-22.802c-0.306-8.278-7.26-14.745-15.545-14.449
	c-8.278,0.307-14.741,7.377-14.435,15.656l0.822,22.319H202.14c-16.542,0-29.648,13.221-29.648,29.763v48.728
	c-17,1.634-31.358,6.474-42.942,14.045c-17.022,11.124-26.058,27.366-26.058,46.968v135.435c0,19.751,7.636,36.148,22.345,47.016
	c13.133,9.705,31.099,15.046,52.215,15.046h18.178c21.117,0,39.433-5.341,52.566-15.046c14.708-10.868,22.696-27.265,22.696-47.016
	V177.488C271.492,157.886,262.458,141.644,245.435,130.52z M206.492,210.985c0,11.598-9.402,21-21,21c-11.598,0-21-9.402-21-21v-39
	c0-11.598,9.402-21,21-21c11.598,0,21,9.402,21,21V210.985z"/>
<g>
</g>
<g>
</g>
<g>
</g>
<g>
</g>
<g>
</g>
<g>
</g>
<g>
</g>
<g>
</g>
<g>
</g>
<g>
</g>
<g>
</g>
<g>
</g>
<g>
</g>
<g>
</g>
<g>
</g>
</svg>
