<?xml version="1.0" encoding="UTF-8" standalone="no"?>
<svg
   height="40"
   width="39.871052"
   version="1.1"
   id="svg255"
   sodipodi:docname="changelog.svg"
   inkscape:version="1.1.2 (0a00cf5339, 2022-02-04)"
   xmlns:inkscape="http://www.inkscape.org/namespaces/inkscape"
   xmlns:sodipodi="http://sodipodi.sourceforge.net/DTD/sodipodi-0.dtd"
   xmlns="http://www.w3.org/2000/svg"
   xmlns:svg="http://www.w3.org/2000/svg">
  <defs
     id="defs259" />
  <sodipodi:namedview
     id="namedview257"
     pagecolor="#505050"
     bordercolor="#eeeeee"
     borderopacity="1"
     inkscape:pageshadow="0"
     inkscape:pageopacity="0"
     inkscape:pagecheckerboard="0"
     showgrid="false"
     inkscape:zoom="9.75"
     inkscape:cx="22.307692"
     inkscape:cy="21.333333"
     inkscape:window-width="1366"
     inkscape:window-height="699"
     inkscape:window-x="0"
     inkscape:window-y="32"
     inkscape:window-maximized="1"
     inkscape:current-layer="svg255"
     fit-margin-top="2"
     fit-margin-left="2"
     fit-margin-right="2"
     fit-margin-bottom="2" />
  <path
     d="m 21.471053,19.3 5.75,5.65 q 0.45,0.45 0.45,1.075 0,0.625 -0.45,1.075 -0.45,0.45 -1.05,0.45 -0.6,0 -1.05,-0.45 l -6.2,-6.1 q -0.25,-0.25 -0.35,-0.525 -0.1,-0.275 -0.1,-0.575 v -8.55 q 0,-0.65 0.425,-1.075 0.425,-0.425 1.075,-0.425 0.65,0 1.075,0.425 0.425,0.425 0.425,1.075 z m -1.75,18.7 q -7,0 -11.875,-4.5 Q 2.9710526,29 2.0210526,22.25 q -0.1,-0.7 0.275,-1.2 0.375,-0.5 1.075,-0.55 0.6,-0.05 1.05,0.375 0.45,0.425 0.55,1.025 0.85,5.6 4.9000004,9.35 4.05,3.75 9.85,3.75 6.35,0 10.75,-4.45 4.4,-4.45 4.4,-10.8 0,-6.2 -4.45,-10.475 -4.45,-4.275 -10.7,-4.275 -3.4,0 -6.375,1.55 -2.975,1.55 -5.175,4.1 h 3.75 q 0.65,0 1.075,0.425 0.425,0.425 0.425,1.075 0,0.65 -0.425,1.075 -0.425,0.425 -1.075,0.425 H 4.4710526 q -0.65,0 -1.075,-0.425 -0.425,-0.425 -0.425,-1.075 v -7.4 q 0,-0.65 0.425,-1.075 0.425,-0.425 1.075,-0.425 0.65,0 1.075,0.425 0.425,0.425 0.425,1.075 v 3.8 Q 8.571053,5.5 12.146053,3.75 q 3.575,-1.75 7.575,-1.75 3.75,0 7.05,1.4 3.3,1.4 5.775,3.825 2.475,2.425 3.9,5.675 1.425,3.25 1.425,7 0,3.75 -1.425,7.05 -1.425,3.3 -3.9,5.75 -2.475,2.45 -5.775,3.875 -3.3,1.425 -7.05,1.425 z"
     id="path253" />
</svg>
