<?xml version="1.0" encoding="UTF-8" standalone="no"?>
<svg
   height="18"
   viewBox="0 -960 720 720"
   width="18"
   fill="#e8eaed"
   version="1.1"
   id="svg1"
   sodipodi:docname="design.svg"
   inkscape:version="1.4 (e7c3feb100, 2024-10-09)"
   xmlns:inkscape="http://www.inkscape.org/namespaces/inkscape"
   xmlns:sodipodi="http://sodipodi.sourceforge.net/DTD/sodipodi-0.dtd"
   xmlns="http://www.w3.org/2000/svg"
   xmlns:svg="http://www.w3.org/2000/svg">
  <defs
     id="defs1" />
  <sodipodi:namedview
     id="namedview1"
     pagecolor="#505050"
     bordercolor="#eeeeee"
     borderopacity="1"
     inkscape:showpageshadow="0"
     inkscape:pageopacity="0"
     inkscape:pagecheckerboard="0"
     inkscape:deskcolor="#d1d1d1"
     inkscape:zoom="33.333333"
     inkscape:cx="9.015"
     inkscape:cy="9"
     inkscape:window-width="1920"
     inkscape:window-height="1011"
     inkscape:window-x="0"
     inkscape:window-y="0"
     inkscape:window-maximized="1"
     inkscape:current-layer="svg1" />
  <path
     d="M 80,-240 Q 47,-240 23.5,-263.5 0,-287 0,-320 V -880 Q 0,-913 23.5,-936.5 47,-960 80,-960 h 360 v 80 H 80 v 560 h 560 v -360 h 80 v 360 q 0,33 -23.5,56.5 Q 673,-240 640,-240 Z m 120,-160 v -80 h 320 v 80 z m 0,-120 v -80 h 320 v 80 z m 0,-120 v -80 h 320 v 80 z m 360,-80 v -80 h -80 v -80 h 80 v -80 h 80 v 80 h 80 v 80 h -80 v 80 z"
     id="path1"
     style="fill:#000000" />
</svg>
