<?xml version="1.0" encoding="UTF-8" standalone="no"?>
<svg
   height="40"
   width="40"
   version="1.1"
   id="svg32"
   sodipodi:docname="emails.svg"
   inkscape:version="1.2.1 (9c6d41e410, 2022-07-14)"
   xmlns:inkscape="http://www.inkscape.org/namespaces/inkscape"
   xmlns:sodipodi="http://sodipodi.sourceforge.net/DTD/sodipodi-0.dtd"
   xmlns="http://www.w3.org/2000/svg"
   xmlns:svg="http://www.w3.org/2000/svg">
  <defs
     id="defs36" />
  <sodipodi:namedview
     id="namedview34"
     pagecolor="#505050"
     bordercolor="#eeeeee"
     borderopacity="1"
     inkscape:showpageshadow="0"
     inkscape:pageopacity="0"
     inkscape:pagecheckerboard="0"
     inkscape:deskcolor="#505050"
     showgrid="false"
     inkscape:zoom="4.9166667"
     inkscape:cx="18.711864"
     inkscape:cy="16.067797"
     inkscape:window-width="1366"
     inkscape:window-height="699"
     inkscape:window-x="0"
     inkscape:window-y="32"
     inkscape:window-maximized="1"
     inkscape:current-layer="svg32" />
  <path
     d="M 3,36 Q 1.8,36 0.89999997,35.1 0,34.2 0,33 V 7 Q 0,5.8 0.89999997,4.9 1.8,4 3,4 H 37 Q 38.2,4 39.1,4.9 40,5.8 40,7 v 26 q 0,1.2 -0.9,2.1 Q 38.2,36 37,36 Z M 20,20.6 q 0.25,0 0.425,-0.075 Q 20.6,20.45 20.8,20.35 L 36.5,10.1 Q 36.75,9.9500004 36.875,9.7000004 37,9.45 37,9.15 37,8.5 36.425,8.125 35.85,7.75 35.25,8.15 L 20,17.9 4.8,8.15 Q 4.2,7.75 3.6,8.1 3,8.45 3,9.1 3,9.4 3.15,9.6750004 3.3,9.9500004 3.5,10.1 l 15.7,10.25 q 0.2,0.1 0.375,0.175 Q 19.75,20.6 20,20.6 Z"
     id="path30" />
</svg>
