<?xml version="1.0" encoding="UTF-8" standalone="no"?>
<svg
   height="18"
   viewBox="0 -960 720 720"
   width="18"
   fill="#e8eaed"
   version="1.1"
   id="svg1"
   sodipodi:docname="qr.svg"
   inkscape:version="1.3.2 (091e20ef0f, 2023-11-25)"
   xmlns:inkscape="http://www.inkscape.org/namespaces/inkscape"
   xmlns:sodipodi="http://sodipodi.sourceforge.net/DTD/sodipodi-0.dtd"
   xmlns="http://www.w3.org/2000/svg"
   xmlns:svg="http://www.w3.org/2000/svg">
  <defs
     id="defs1" />
  <sodipodi:namedview
     id="namedview1"
     pagecolor="#505050"
     bordercolor="#eeeeee"
     borderopacity="1"
     inkscape:showpageshadow="0"
     inkscape:pageopacity="0"
     inkscape:pagecheckerboard="true"
     inkscape:deskcolor="#d1d1d1"
     inkscape:zoom="33.541667"
     inkscape:cx="9.510559"
     inkscape:cy="8.9888199"
     inkscape:window-width="1920"
     inkscape:window-height="1011"
     inkscape:window-x="0"
     inkscape:window-y="0"
     inkscape:window-maximized="1"
     inkscape:current-layer="svg1" />
  <path
     d="m 0,-640 v -320 h 320 v 320 z m 80,-80 H 240 V -880 H 80 Z M 0,-240 v -320 h 320 v 320 z m 80,-80 H 240 V -480 H 80 Z m 320,-320 v -320 h 320 v 320 z m 80,-80 H 640 V -880 H 480 Z m 160,480 v -80 h 80 v 80 z M 400,-480 v -80 h 80 v 80 z m 80,80 v -80 h 80 v 80 z m -80,80 v -80 h 80 v 80 z m 80,80 v -80 h 80 v 80 z m 80,-80 v -80 h 80 v 80 z m 0,-160 v -80 h 80 v 80 z m 80,80 v -80 h 80 v 80 z"
     id="path1"
     style="fill:#000000" />
</svg>
