<?xml version="1.0" encoding="UTF-8" standalone="no"?>
<!-- Created with Inkscape (http://www.inkscape.org/) -->

<svg
   version="1.1"
   id="svg3277"
   xml:space="preserve"
   width="297.39999"
   height="351.37332"
   viewBox="0 0 297.39999 351.37332"
   sodipodi:docname="workorders.svg"
   inkscape:version="1.1.1 (3bf5ae0d25, 2021-09-20)"
   xmlns:inkscape="http://www.inkscape.org/namespaces/inkscape"
   xmlns:sodipodi="http://sodipodi.sourceforge.net/DTD/sodipodi-0.dtd"
   xmlns="http://www.w3.org/2000/svg"
   xmlns:svg="http://www.w3.org/2000/svg"><defs
     id="defs3281" /><sodipodi:namedview
     id="namedview3279"
     pagecolor="#505050"
     bordercolor="#eeeeee"
     borderopacity="1"
     inkscape:pageshadow="0"
     inkscape:pageopacity="0"
     inkscape:pagecheckerboard="0"
     showgrid="false"
     inkscape:zoom="2.0462567"
     inkscape:cx="83.322881"
     inkscape:cy="136.34653"
     inkscape:window-width="1280"
     inkscape:window-height="955"
     inkscape:window-x="1280"
     inkscape:window-y="32"
     inkscape:window-maximized="1"
     inkscape:current-layer="g3285" /><g
     id="g3283"
     inkscape:groupmode="layer"
     inkscape:label="ink_ext_XXXXXX"
     transform="matrix(1.3333333,0,0,-1.3333333,0,351.37333)"><g
       id="g3285"
       transform="scale(0.1)"><path
         d="M 207.426,1474.25 68.8398,1531.58 11.5,1393.04 c -31.7734,-76.49 4.5859,-164.25 80.9805,-195.96 33.4175,-13.79 68.6795,-14.06 100.7775,-4.32 -0.387,0.61 -0.82,1.15 -1.262,1.8 -8.82,13.9 -16.23,28.45 -22.445,43.5 -6.215,15.03 -11.289,30.57 -14.828,46.7 -3.368,16.24 -5.879,32.75 -4.684,50.85 13.617,-11.89 23.598,-25.39 32.699,-39.25 8.825,-13.94 16.239,-28.51 22.567,-43.54 6.328,-14.99 11.218,-30.51 14.828,-46.7 0.16,-0.66 0.211,-1.37 0.32,-2.07 29.531,15.8 54.281,40.86 68.117,74.23 31.61,76.4 -4.73,164.2 -81.144,195.97"
         style="fill:#124679;fill-opacity:1;fill-rule:nonzero;stroke:none"
         id="path3287" /><path
         d="m 667.676,2278.66 c 0,0 -317.508,-105.68 -426.625,-369.07 -86.703,-209.16 56.359,-311.52 109.551,-341.16 0.914,3.59 1.625,7.29 2.605,10.84 10.035,35.42 22.238,69.82 36.25,103.6 13.898,33.68 29.758,66.65 47.684,98.7 18.093,32.05 37.824,63.43 62.898,92.48 -2.836,-38.35 -11.078,-74.44 -20.883,-109.87 -9.972,-35.32 -22.179,-69.81 -36.125,-103.54 -13.91,-33.79 -29.707,-66.71 -47.633,-98.87 -1.851,-3.15 -3.929,-6.26 -5.781,-9.48 58.699,-16.67 232.16,-45.4 318.817,163.61 109.046,263.5 -40.758,562.76 -40.758,562.76"
         style="fill:#24a78f;fill-opacity:1;fill-rule:nonzero;stroke:none"
         id="path3289" /><path
         d="M 1201.55,2558.3 C 956.453,2456.77 920.434,2099.08 915.309,1978.75 c 21.254,33.9 44.05,66.87 69.117,98.2 62.344,77.35 135.794,146.34 217.004,204.21 81.3,57.88 170.26,104.87 263.61,138.81 93.47,33.53 191.14,55.11 289.55,57.94 -92.09,-34.45 -180.82,-70.53 -265.56,-113.69 -84.92,-42.62 -165.96,-91.38 -242.58,-146.1 -76.67,-54.83 -149.11,-115.61 -216.9,-181.99 -35.269,-34.33 -69.12,-70.35 -102.124,-107.52 64.609,-49.65 371.564,-269.4 642.204,-190.81 369.84,107.37 660.86,746.1 660.86,746.1 0,0 -523.53,283.72 -1028.94,74.4"
         style="fill:#92c04f;fill-opacity:1;fill-rule:nonzero;stroke:none"
         id="path3291" /><path
         d="M 2119.62,676 C 2042.13,467.719 1893.25,283.559 1699.76,162.02 1506.63,39.7891 1269.77,-17.1797 1036.29,4.51953 802.504,24.9102 573.598,126.262 396.91,289.77 219.586,452.289 95.1055,677.059 53.3633,920.809 l -0.3399,1.703 c -10.6718,62.238 31.1758,121.308 93.4176,131.928 62.247,10.7 121.258,-31.11 131.883,-93.338 0.555,-3.223 0.989,-6.661 1.309,-9.883 C 295.992,754.66 380.023,561.281 517.848,411.102 654.855,260.301 844.473,153.91 1051.24,117.68 c 206.66,-37.2386 428.13,-5.66 620.08,93.832 192.16,98.75 353.16,263.558 448.3,464.488"
         style="fill:#124679;fill-opacity:1;fill-rule:nonzero;stroke:none"
         id="path3293" /></g></g></svg>
