<?xml version="1.0" encoding="UTF-8" standalone="no"?>
<svg
   height="36"
   width="36"
   version="1.1"
   id="svg382"
   sodipodi:docname="add.svg"
   inkscape:version="1.2.1 (9c6d41e410, 2022-07-14)"
   xmlns:inkscape="http://www.inkscape.org/namespaces/inkscape"
   xmlns:sodipodi="http://sodipodi.sourceforge.net/DTD/sodipodi-0.dtd"
   xmlns="http://www.w3.org/2000/svg"
   xmlns:svg="http://www.w3.org/2000/svg">
  <defs
     id="defs386" />
  <sodipodi:namedview
     id="namedview384"
     pagecolor="#505050"
     bordercolor="#eeeeee"
     borderopacity="1"
     inkscape:showpageshadow="0"
     inkscape:pageopacity="0"
     inkscape:pagecheckerboard="0"
     inkscape:deskcolor="#505050"
     showgrid="false"
     inkscape:zoom="4.9166667"
     inkscape:cx="14.033898"
     inkscape:cy="14.033898"
     inkscape:window-width="1366"
     inkscape:window-height="699"
     inkscape:window-x="0"
     inkscape:window-y="32"
     inkscape:window-maximized="1"
     inkscape:current-layer="svg382" />
  <path
     d="M 18,32 Q 17.35,32 16.925,31.575 16.5,31.15 16.5,30.5 v -11 H 5.5 Q 4.85,19.5 4.425,19.075 4,18.65 4,18 4,17.35 4.425,16.925 4.85,16.5 5.5,16.5 h 11 V 5.5 Q 16.5,4.85 16.925,4.425 17.35,4 18,4 18.65,4 19.075,4.425 19.5,4.85 19.5,5.5 v 11 h 11 q 0.65,0 1.075,0.425 Q 32,17.35 32,18 32,18.65 31.575,19.075 31.15,19.5 30.5,19.5 h -11 v 11 q 0,0.65 -0.425,1.075 Q 18.65,32 18,32 Z"
     id="path380" />
</svg>
