<?xml version="1.0" encoding="UTF-8" standalone="no"?>
<!-- Created with Inkscape (http://www.inkscape.org/) -->

<svg
   version="1.1"
   id="svg2"
   xml:space="preserve"
   width="362.78668"
   height="175.49333"
   viewBox="0 0 362.78668 175.49333"
   sodipodi:docname="HCPS_FullLogo_color.svg"
   inkscape:version="1.1.1 (3bf5ae0d25, 2021-09-20)"
   xmlns:inkscape="http://www.inkscape.org/namespaces/inkscape"
   xmlns:sodipodi="http://sodipodi.sourceforge.net/DTD/sodipodi-0.dtd"
   xmlns="http://www.w3.org/2000/svg"
   xmlns:svg="http://www.w3.org/2000/svg"><defs
     id="defs6" /><sodipodi:namedview
     id="namedview4"
     pagecolor="#505050"
     bordercolor="#eeeeee"
     borderopacity="1"
     inkscape:pageshadow="0"
     inkscape:pageopacity="0"
     inkscape:pagecheckerboard="0"
     showgrid="false"
     inkscape:zoom="1.5312028"
     inkscape:cx="162.94379"
     inkscape:cy="133.22859"
     inkscape:window-width="1280"
     inkscape:window-height="955"
     inkscape:window-x="1280"
     inkscape:window-y="32"
     inkscape:window-maximized="1"
     inkscape:current-layer="g8" /><g
     id="g8"
     inkscape:groupmode="layer"
     inkscape:label="ink_ext_XXXXXX"
     transform="matrix(1.3333333,0,0,-1.3333333,0,175.49333)"><g
       id="g10"
       transform="scale(0.1)"><path
         d="m 391.824,640.68 h 42.739 v -57.715 h 54.839 v 57.715 h 42.727 V 486.492 h -42.727 v 58.59 h -54.839 v -58.59 H 391.824 V 640.68"
         style="fill:#00a991;fill-opacity:1;fill-rule:nonzero;stroke:none"
         id="path12" /><path
         d="m 661.191,547.477 -17.175,43.648 -17.414,-43.648 z M 623.75,641.77 h 41.188 l 65.628,-155.278 h -45.808 l -11.004,27.75 h -59.695 l -11.016,-27.75 H 558.34 l 65.41,155.278"
         style="fill:#00a991;fill-opacity:1;fill-rule:nonzero;stroke:none"
         id="path14" /><path
         d="m 827.695,566.664 c 14.309,0 22.914,7.055 22.914,18.27 v 0.461 c 0,12.332 -9.027,18.488 -23.132,18.488 h -28.2 v -37.219 z m -71.14,74.016 h 72.902 c 23.566,0 39.863,-6.172 50.223,-16.528 9.031,-9.047 13.664,-20.722 13.664,-35.914 v -0.441 c 0,-23.781 -12.559,-39.414 -31.727,-47.543 l 36.774,-53.762 h -49.106 l -31.062,46.703 H 799.277 V 486.492 H 756.555 V 640.68"
         style="fill:#00a991;fill-opacity:1;fill-rule:nonzero;stroke:none"
         id="path16" /><path
         d="m 925.914,640.68 h 123.346 v -37.465 h -80.631 v -26.192 h 72.911 V 541.559 H 968.629 V 486.492 H 925.914 V 640.68"
         style="fill:#00a991;fill-opacity:1;fill-rule:nonzero;stroke:none"
         id="path18" /><path
         d="m 1197.04,563.113 v 0.457 c 0,22.477 -15.86,41.633 -39.42,41.633 -23.57,0 -39.21,-18.941 -39.21,-41.187 v -0.446 c 0,-22.25 16.07,-41.609 39.64,-41.609 23.35,0 38.99,18.922 38.99,41.152 z m -122.24,0 v 0.457 c 0,44.289 35.69,80.172 83.25,80.172 47.58,0 82.81,-35.457 82.81,-79.726 v -0.446 c 0,-44.257 -35.67,-80.183 -83.24,-80.183 -47.58,0 -82.82,35.468 -82.82,79.726"
         style="fill:#00a991;fill-opacity:1;fill-rule:nonzero;stroke:none"
         id="path20" /><path
         d="m 1345.04,566.664 c 14.31,0 22.89,7.055 22.89,18.27 v 0.461 c 0,12.332 -9.01,18.488 -23.12,18.488 h -28.19 v -37.219 z m -71.15,74.016 h 72.89 c 23.6,0 39.89,-6.172 50.23,-16.528 9.04,-9.047 13.65,-20.722 13.65,-35.914 v -0.441 c 0,-23.781 -12.54,-39.414 -31.71,-47.543 l 36.79,-53.762 h -49.12 l -31.05,46.703 h -18.95 v -46.703 h -42.73 V 640.68"
         style="fill:#00a991;fill-opacity:1;fill-rule:nonzero;stroke:none"
         id="path22" /><path
         d="m 1485.98,603.012 v -78.653 h 17.41 c 25.77,0 42.73,14.094 42.73,38.996 v 0.446 c 0,24.679 -16.96,39.211 -42.73,39.211 z m -42.7,37.668 h 59.66 c 54.87,0 86.8,-31.746 86.8,-76.219 v -0.445 c 0,-44.489 -32.39,-77.524 -87.68,-77.524 h -58.78 V 640.68"
         style="fill:#00a991;fill-opacity:1;fill-rule:nonzero;stroke:none"
         id="path24" /><path
         d="m 1689.94,563.113 v 0.457 c 0,44.93 34.34,80.172 81.05,80.172 31.49,0 51.74,-13.203 65.41,-31.937 l -32.16,-24.883 c -8.82,10.805 -18.94,18.051 -33.72,18.051 -21.57,0 -36.76,-18.504 -36.76,-40.957 v -0.446 c 0,-23.105 15.19,-41.191 36.76,-41.191 16.1,0 25.56,7.508 34.8,18.719 l 32.18,-22.883 c -14.55,-20.047 -34.17,-34.828 -68.06,-34.828 -44.05,0 -79.5,33.711 -79.5,79.726"
         style="fill:#00a991;fill-opacity:1;fill-rule:nonzero;stroke:none"
         id="path26" /><path
         d="m 1979.77,563.113 v 0.457 c 0,22.477 -15.85,41.633 -39.42,41.633 -23.57,0 -39.21,-18.941 -39.21,-41.187 v -0.446 c 0,-22.25 16.06,-41.609 39.65,-41.609 23.34,0 38.98,18.922 38.98,41.152 z m -122.24,0 v 0.457 c 0,44.289 35.69,80.172 83.26,80.172 47.56,0 82.81,-35.457 82.81,-79.726 v -0.446 c 0,-44.257 -35.67,-80.183 -83.25,-80.183 -47.58,0 -82.82,35.468 -82.82,79.726"
         style="fill:#00a991;fill-opacity:1;fill-rule:nonzero;stroke:none"
         id="path28" /><path
         d="m 2054.87,554.098 v 86.582 h 43.18 v -85.696 c 0,-22.254 11.22,-32.816 28.4,-32.816 17.42,0 28.63,10.125 28.63,31.715 v 86.797 h 43.19 v -85.477 c 0,-49.574 -28.41,-71.601 -72.25,-71.601 -43.61,0 -71.15,22.265 -71.15,70.496"
         style="fill:#00a991;fill-opacity:1;fill-rule:nonzero;stroke:none"
         id="path30" /><path
         d="m 2234.58,640.68 h 39.87 l 63.44,-81.524 v 81.524 h 42.29 V 486.492 h -37.24 l -66.05,84.559 v -84.559 h -42.31 V 640.68"
         style="fill:#00a991;fill-opacity:1;fill-rule:nonzero;stroke:none"
         id="path32" /><path
         d="m 2456.16,603.215 h -46.04 v 37.465 h 135.03 v -37.465 h -46.24 V 486.492 h -42.75 v 116.723"
         style="fill:#00a991;fill-opacity:1;fill-rule:nonzero;stroke:none"
         id="path34" /><path
         d="m 2619.58,544.191 -58.8,96.489 h 48.66 l 31.72,-56.184 31.93,56.184 h 47.8 l -58.6,-95.844 v -58.344 h -42.71 v 57.699"
         style="fill:#00a991;fill-opacity:1;fill-rule:nonzero;stroke:none"
         id="path36" /><path
         d="m 735.766,317.879 c 19.093,0 32.015,9.961 32.015,25.262 v 0.293 c 0,16.289 -12.625,24.804 -31.144,24.804 h -29.078 v -50.359 z m -35.84,57.414 h 37.308 c 22.621,0 38.18,-11.594 38.18,-31.43 v -0.293 c 0,-21.582 -18.637,-32.738 -40.094,-32.738 h -27.761 v -38.344 h -7.633 v 102.805"
         style="fill:#104076;fill-opacity:1;fill-rule:nonzero;stroke:none"
         id="path38" /><path
         d="m 825.742,315.23 v 60.063 h 7.66 v -59.352 c 0,-24.222 13.059,-38.171 34.786,-38.171 20.871,0 34.238,12.628 34.238,37.46 v 60.063 h 7.637 V 316.09 c 0,-29.5 -17.188,-45.231 -42.157,-45.231 -24.679,0 -42.164,15.563 -42.164,44.371"
         style="fill:#104076;fill-opacity:1;fill-rule:nonzero;stroke:none"
         id="path40" /><path
         d="m 1010.79,320.809 h -34.821 v -41.297 h 37.311 c 17.62,0 28.79,8.097 28.79,21.008 v 0.312 c 0,12.617 -11.03,19.977 -31.28,19.977 z m 25.54,28.496 c 0,11.308 -9.25,18.933 -25.7,18.933 H 975.969 V 327.84 h 33.921 c 15.42,0 26.44,7.519 26.44,21.18 z m -68.002,25.988 h 42.462 c 11.58,0 20.98,-3.383 26.71,-9.094 4.27,-4.269 6.62,-9.719 6.62,-16.164 v -0.293 c 0,-13.972 -9.11,-21.004 -17.48,-24.375 12.33,-3.23 23.2,-10.308 23.2,-24.535 v -0.312 c 0,-17.168 -14.68,-28.032 -36.86,-28.032 h -44.652 v 102.805"
         style="fill:#104076;fill-opacity:1;fill-rule:nonzero;stroke:none"
         id="path42" /><path
         d="m 1103.7,375.293 h 7.63 v -95.781 h 60.37 v -7.024 h -68 v 102.805"
         style="fill:#104076;fill-opacity:1;fill-rule:nonzero;stroke:none"
         id="path44" /><path
         d="m 1224.97,375.293 h 7.64 V 272.488 h -7.64 v 102.805"
         style="fill:#104076;fill-opacity:1;fill-rule:nonzero;stroke:none"
         id="path46" /><path
         d="m 1288.99,323.57 v 0.313 c 0,29.113 21.73,53.176 51.41,53.176 18.36,0 29.36,-6.739 39.94,-16.446 l -5.42,-5.586 c -8.97,8.672 -19.24,15.145 -34.68,15.145 -24.67,0 -43.32,-20.137 -43.32,-45.996 v -0.293 c 0,-26.004 18.95,-46.262 43.48,-46.262 14.84,0 24.96,5.731 35.38,16 l 5.14,-4.992 c -10.86,-10.738 -22.6,-17.91 -40.81,-17.91 -29.39,0 -51.12,23.359 -51.12,52.851"
         style="fill:#104076;fill-opacity:1;fill-rule:nonzero;stroke:none"
         id="path48" /><path
         d="m 1498.06,287.469 4.98,5.722 c 11.34,-10.441 21.75,-15.3 36.87,-15.3 15.43,0 26.02,8.699 26.02,20.449 v 0.301 c 0,10.839 -5.74,17.16 -29.1,21.863 -24.67,5 -34.64,13.379 -34.64,28.945 v 0.293 c 0,15.274 13.95,27.024 33.04,27.024 14.98,0 24.82,-4.114 35.25,-12.481 l -4.84,-6.015 c -9.69,8.359 -19.39,11.601 -30.7,11.601 -15.15,0 -25.13,-8.672 -25.13,-19.414 v -0.285 c 0,-10.867 5.59,-17.469 29.96,-22.461 23.8,-4.852 33.78,-13.371 33.78,-28.34 v -0.281 c 0,-16.641 -14.25,-28.102 -34.08,-28.102 -16.44,0 -29.06,5.453 -41.41,16.481"
         style="fill:#104076;fill-opacity:1;fill-rule:nonzero;stroke:none"
         id="path50" /><path
         d="m 1623.45,323.57 v 0.313 c 0,29.113 21.74,53.176 51.41,53.176 18.37,0 29.38,-6.739 39.95,-16.446 l -5.43,-5.586 c -8.96,8.672 -19.25,15.145 -34.67,15.145 -24.67,0 -43.31,-20.137 -43.31,-45.996 v -0.293 c 0,-26.004 18.93,-46.262 43.46,-46.262 14.83,0 24.98,5.731 35.39,16 l 5.16,-4.992 c -10.88,-10.738 -22.63,-17.91 -40.85,-17.91 -29.37,0 -51.11,23.359 -51.11,52.851"
         style="fill:#104076;fill-opacity:1;fill-rule:nonzero;stroke:none"
         id="path52" /><path
         d="m 1765.75,375.293 h 7.62 v -47.582 h 65.8 v 47.582 h 7.64 V 272.488 h -7.64 v 48.153 h -65.8 v -48.153 h -7.62 v 102.805"
         style="fill:#104076;fill-opacity:1;fill-rule:nonzero;stroke:none"
         id="path54" /><path
         d="m 1997.61,323.57 v 0.313 c 0,25.422 -18.5,46.289 -43.92,46.289 -25.41,0 -43.62,-20.574 -43.62,-45.996 v -0.293 c 0,-25.403 18.5,-46.262 43.91,-46.262 25.42,0 43.63,20.57 43.63,45.949 z m -95.48,0 v 0.313 c 0,28.066 20.72,53.176 51.85,53.176 31.13,0 51.55,-24.817 51.55,-52.883 v -0.293 c 0,-28.031 -20.71,-53.164 -51.84,-53.164 -31.14,0 -51.56,24.82 -51.56,52.851"
         style="fill:#104076;fill-opacity:1;fill-rule:nonzero;stroke:none"
         id="path56" /><path
         d="m 2151.76,323.57 v 0.313 c 0,25.422 -18.49,46.289 -43.89,46.289 -25.42,0 -43.64,-20.574 -43.64,-45.996 v -0.293 c 0,-25.403 18.51,-46.262 43.92,-46.262 25.41,0 43.61,20.57 43.61,45.949 z m -95.44,0 v 0.313 c 0,28.066 20.7,53.176 51.83,53.176 31.14,0 51.57,-24.817 51.57,-52.883 v -0.293 c 0,-28.031 -20.72,-53.164 -51.85,-53.164 -31.15,0 -51.55,24.82 -51.55,52.851"
         style="fill:#104076;fill-opacity:1;fill-rule:nonzero;stroke:none"
         id="path58" /><path
         d="m 2215.02,375.293 h 7.64 v -95.781 h 60.36 v -7.024 h -68 v 102.805"
         style="fill:#104076;fill-opacity:1;fill-rule:nonzero;stroke:none"
         id="path60" /><path
         d="m 2328.66,287.469 5,5.722 c 11.31,-10.441 21.74,-15.3 36.86,-15.3 15.42,0 26.01,8.699 26.01,20.449 v 0.301 c 0,10.839 -5.73,17.16 -29.08,21.863 -24.68,5 -34.68,13.379 -34.68,28.945 v 0.293 c 0,15.274 13.95,27.024 33.06,27.024 14.98,0 24.82,-4.114 35.24,-12.481 l -4.82,-6.015 c -9.71,8.359 -19.42,11.601 -30.72,11.601 -15.12,0 -25.13,-8.672 -25.13,-19.414 v -0.285 c 0,-10.867 5.58,-17.469 29.98,-22.461 23.8,-4.852 33.79,-13.371 33.79,-28.34 v -0.281 c 0,-16.641 -14.25,-28.102 -34.1,-28.102 -16.44,0 -29.07,5.453 -41.41,16.481"
         style="fill:#104076;fill-opacity:1;fill-rule:nonzero;stroke:none"
         id="path62" /><path
         d="M 96.4492,251.539 C 135.84,185.641 190.191,128.461 253.336,86.2617 316.461,43.8984 388.59,16.0703 462.621,5.32813 536.594,-5.5 612.246,0.269531 682.633,21.7383 752.988,43.1289 817.73,80.3516 871.016,129.109 814.004,84.7188 747.594,53.5391 678.258,38.3516 609.008,23.1016 536.891,23.6094 468.922,39.1719 400.938,54.6484 337.273,85.4883 283.656,128.02 c -53.734,42.621 -97.129,96.39 -127.133,157.121 -8.421,17.05 -29.082,24.05 -46.14,15.589 -17.0627,-8.41 -24.0627,-29.07 -15.6369,-46.14 0.4102,-0.789 0.832,-1.57 1.2812,-2.352 l 0.4219,-0.699"
         style="fill:#104076;fill-opacity:1;fill-rule:nonzero;stroke:none"
         id="path64" /><path
         d="m 71.1016,505.246 c 39.2144,-0.035 71.0784,-31.859 71.0784,-71.07 0,-17.09 -6.285,-32.578 -16.352,-44.84 -0.183,0.269 -0.332,0.594 -0.531,0.848 -4.512,6.394 -9.527,12.293 -14.984,17.734 -5.454,5.469 -11.3482,10.477 -17.7661,14.969 -6.4961,4.426 -13.3008,8.527 -21.4571,11.289 2.754,-8.145 6.879,-14.969 11.2891,-21.465 4.5078,-6.414 9.5156,-12.293 14.9609,-17.742 5.4492,-5.481 11.3482,-10.489 17.7542,-15 0.277,-0.196 0.574,-0.352 0.84,-0.508 C 103.672,369.363 88.1602,363.063 71.0508,363.063 31.8359,363.063 0,394.891 0,434.176 v 71.07 h 71.1016"
         style="fill:#385c93;fill-opacity:1;fill-rule:nonzero;stroke:none"
         id="path66" /><path
         d="m 126.719,941.059 c 0,0 119.914,-103.879 119.914,-239.051 0,-107.266 -81.199,-126.141 -109.899,-129.5 0.223,1.762 0.606,3.492 0.821,5.234 2.011,17.301 2.949,34.594 2.933,51.91 -0.015,17.297 -0.953,34.594 -2.976,51.903 -2.129,17.304 -5.094,34.601 -10.793,51.906 -5.707,-17.305 -8.656,-34.602 -10.785,-51.906 -2.024,-17.309 -2.965,-34.606 -2.981,-51.903 -0.015,-17.316 0.93,-34.609 2.942,-51.91 0.214,-1.742 0.582,-3.472 0.816,-5.234 -28.6758,3.359 -109.85944,22.234 -109.85944,129.5 0,135.172 119.86744,239.051 119.86744,239.051"
         style="fill:#00a991;fill-opacity:1;fill-rule:nonzero;stroke:none"
         id="path68" /><path
         d="m 329.215,900.441 c 17.66,41.434 38.328,81.172 61.961,119.049 23.668,37.91 50.304,73.91 79.722,108.04 29.297,34.26 61.614,66.13 95.68,97.9 -42.59,-19.07 -81.461,-46.23 -116.281,-77.86 -34.723,-31.81 -65.168,-68.52 -90.223,-108.65 -25.101,-40.049 -44.754,-83.565 -58.035,-128.752 -5.293,-18.27 -9.301,-36.863 -12.465,-55.555 -19.551,53.567 -68.707,216.807 20.223,305.727 183.383,183.39 464.148,154.09 464.148,154.09 0,0 -11.609,-332.508 -154.09,-446.61 -104.281,-83.496 -278.546,-42.961 -315.878,-32.933 7.726,22.289 16.003,44.144 25.238,65.554"
         style="fill:#6ec72e;fill-opacity:1;fill-rule:nonzero;stroke:none"
         id="path70" /></g></g></svg>
