<?xml version="1.0" encoding="UTF-8" standalone="no"?>
<svg
   height="36"
   width="36"
   version="1.1"
   id="svg56"
   sodipodi:docname="load.svg"
   viewBox="0 0 36 36"
   inkscape:version="1.2.1 (9c6d41e410, 2022-07-14)"
   xmlns:inkscape="http://www.inkscape.org/namespaces/inkscape"
   xmlns:sodipodi="http://sodipodi.sourceforge.net/DTD/sodipodi-0.dtd"
   xmlns="http://www.w3.org/2000/svg"
   xmlns:svg="http://www.w3.org/2000/svg">
  <defs
     id="defs60" />
  <sodipodi:namedview
     id="namedview58"
     pagecolor="#505050"
     bordercolor="#eeeeee"
     borderopacity="1"
     inkscape:showpageshadow="false"
     inkscape:pageopacity="0"
     inkscape:pagecheckerboard="false"
     inkscape:deskcolor="#505050"
     showgrid="false"
     shape-rendering="auto"
     inkscape:zoom="8.2493114"
     inkscape:cx="-2.7881115"
     inkscape:cy="19.395558"
     inkscape:window-width="1366"
     inkscape:window-height="699"
     inkscape:window-x="0"
     inkscape:window-y="32"
     inkscape:window-maximized="1"
     inkscape:current-layer="svg56" />
  <path
     d="m 18,24.489456 q -0.65,0 -1.075,-0.425 -0.425,-0.425 -0.425,-1.075 v -17.05 l -4.95,4.95 q -0.45,0.45 -1.05,0.425 -0.6,-0.025 -1.05,-0.475 -0.45,-0.45 -0.45,-1.075 0,-0.625 0.45,-1.075 l 7.5,-7.5 q 0.25,-0.24999996 0.5,-0.34999996 0.25,-0.1 0.55,-0.1 0.3,0 0.55,0.1 0.25,0.1 0.5,0.34999996 l 7.55,7.55 q 0.45,0.45 0.45,1.05 0,0.6 -0.45,1.05 -0.45,0.45 -1.075,0.45 -0.625,0 -1.075,-0.45 l -4.95,-4.9 v 17.05 q 0,0.65 -0.425,1.075 -0.425,0.425 -1.075,0.425 z m -13,7.65 q -1.2,0 -2.1,-0.9 -0.9,-0.9 -0.9,-2.1 v -5.65 q 0,-0.65 0.425,-1.075 0.425,-0.425 1.075,-0.425 0.65,0 1.075,0.425 0.425,0.425 0.425,1.075 v 5.65 h 26 v -5.65 q 0,-0.65 0.425,-1.075 0.425,-0.425 1.075,-0.425 0.65,0 1.075,0.425 0.425,0.425 0.425,1.075 v 5.65 q 0,1.2 -0.9,2.1 -0.9,0.9 -2.1,0.9 z"
     id="path54" />
</svg>
