<?xml version="1.0" encoding="UTF-8" standalone="no"?>
<svg
   height="36"
   width="40"
   version="1.1"
   id="svg4"
   sodipodi:docname="print.svg"
   inkscape:version="1.1.1 (3bf5ae0d25, 2021-09-20)"
   xmlns:inkscape="http://www.inkscape.org/namespaces/inkscape"
   xmlns:sodipodi="http://sodipodi.sourceforge.net/DTD/sodipodi-0.dtd"
   xmlns="http://www.w3.org/2000/svg"
   xmlns:svg="http://www.w3.org/2000/svg">
  <defs
     id="defs8" />
  <sodipodi:namedview
     id="namedview6"
     pagecolor="#505050"
     bordercolor="#eeeeee"
     borderopacity="1"
     inkscape:pageshadow="0"
     inkscape:pageopacity="0"
     inkscape:pagecheckerboard="0"
     showgrid="false"
     fit-margin-top="0"
     fit-margin-left="0"
     fit-margin-right="0"
     fit-margin-bottom="0"
     inkscape:zoom="7.4895833"
     inkscape:cx="13.285118"
     inkscape:cy="17.357441"
     inkscape:window-width="1280"
     inkscape:window-height="955"
     inkscape:window-x="1280"
     inkscape:window-y="32"
     inkscape:window-maximized="1"
     inkscape:current-layer="svg4" />
  <path
     d="M 8.1,8.1 V 0 h 23.8 v 8.1 z m 24.85,9.25 q 0.6,0 1.05,-0.45 0.45,-0.45 0.45,-1.05 0,-0.6 -0.45,-1.05 -0.45,-0.45 -1.05,-0.45 -0.6,0 -1.05,0.45 -0.45,0.45 -0.45,1.05 0,0.6 0.45,1.05 0.45,0.45 1.05,0.45 z M 11.1,33 H 28.9 V 23.4 H 11.1 Z m -3,3 V 27.2 H 0 V 14.9 Q 0,12.65 1.525,11.125 3.05,9.6 5.3,9.6 h 29.4 q 2.25,0 3.775,1.525 Q 40,12.65 40,14.9 V 27.2 H 31.9 V 36 Z"
     id="path2" />
</svg>
