<?xml version="1.0" encoding="UTF-8" standalone="no"?>
<svg
   height="36"
   width="36"
   version="1.1"
   id="svg298"
   sodipodi:docname="save.svg"
   inkscape:version="1.2.1 (9c6d41e410, 2022-07-14)"
   xmlns:inkscape="http://www.inkscape.org/namespaces/inkscape"
   xmlns:sodipodi="http://sodipodi.sourceforge.net/DTD/sodipodi-0.dtd"
   xmlns="http://www.w3.org/2000/svg"
   xmlns:svg="http://www.w3.org/2000/svg">
  <defs
     id="defs302" />
  <sodipodi:namedview
     id="namedview300"
     pagecolor="#505050"
     bordercolor="#eeeeee"
     borderopacity="1"
     inkscape:showpageshadow="0"
     inkscape:pageopacity="0"
     inkscape:pagecheckerboard="0"
     inkscape:deskcolor="#505050"
     showgrid="false"
     inkscape:zoom="4.9166667"
     inkscape:cx="24"
     inkscape:cy="24"
     inkscape:window-width="1366"
     inkscape:window-height="699"
     inkscape:window-x="0"
     inkscape:window-y="32"
     inkscape:window-maximized="1"
     inkscape:current-layer="svg298" />
  <path
     d="m 18,24.607229 q -0.3,0 -0.55,-0.1 -0.25,-0.1 -0.5,-0.35 l -7.55,-7.55 q -0.45,-0.45 -0.425,-1.075 0.025,-0.625 0.475,-1.075 0.45,-0.45 1.075,-0.45 0.625,0 1.075,0.45 l 4.9,4.95 V 2.3572295 q 0,-0.65 0.425,-1.075 Q 17.35,0.85722946 18,0.85722946 q 0.65,0 1.075,0.42500004 0.425,0.425 0.425,1.075 V 19.407229 l 4.95,-4.95 q 0.45,-0.45 1.075,-0.45 0.625,0 1.075,0.45 0.45,0.45 0.45,1.075 0,0.625 -0.45,1.075 l -7.55,7.55 q -0.25,0.25 -0.5,0.35 -0.25,0.1 -0.55,0.1 z m -13,8.25 q -1.2,0 -2.1,-0.9 -0.9,-0.9 -0.9,-2.1 v -5.65 q 0,-0.65 0.425,-1.075 0.425,-0.425 1.075,-0.425 0.65,0 1.075,0.425 0.425,0.425 0.425,1.075 v 5.65 h 26 v -5.65 q 0,-0.65 0.425,-1.075 0.425,-0.425 1.075,-0.425 0.65,0 1.075,0.425 0.425,0.425 0.425,1.075 v 5.65 q 0,1.2 -0.9,2.1 -0.9,0.9 -2.1,0.9 z"
     id="path296" />
</svg>
