<svg width="48" height="48" xmlns="http://www.w3.org/2000/svg">

 <g>
  <title>Layer 1</title>
  <ellipse stroke-width="0" ry="23.79309" rx="23.79309" id="svg_2" cy="24" cx="24" stroke="#000" fill="#fff"/>
  <path id="svg_1" d="m35.97537,40.18978q-0.783,0 -1.49692,-0.29938q-0.71392,-0.29938 -1.31268,-0.89815l-10.27118,-10.3633q-1.05936,0.36847 -2.11872,0.59877q-1.05936,0.2303 -2.16478,0.2303q-4.46773,0 -7.59975,-3.10899q-3.13202,-3.10899 -3.13202,-7.57672q0,-1.42783 0.36847,-2.78658q0.36847,-1.35874 1.05936,-2.55628l6.67857,6.67857l4.23744,-3.96108l-6.86281,-6.86281q1.19754,-0.69089 2.53325,-1.08239q1.33571,-0.3915 2.71749,-0.3915q4.55985,0 7.76096,3.20111q3.20111,3.20111 3.20111,7.76096q0,1.10542 -0.2303,2.16478q-0.2303,1.05936 -0.59877,2.11872l10.17906,10.17906q0.59877,0.59877 0.89815,1.35874q0.29938,0.75998 0.29938,1.58904q0,0.82906 -0.32241,1.58904q-0.32241,0.75998 -0.96724,1.31268q-0.64483,0.55271 -1.35874,0.82906q-0.71392,0.27635 -1.49692,0.27635z"/>
 </g>
</svg>